<?xml version="1.0" encoding="UTF-8"?>
<svg width="3.8164mm" height="4.3688mm" version="1.1" viewBox="0 0 3.8164 4.3688" xmlns="http://www.w3.org/2000/svg" xmlns:cc="http://creativecommons.org/ns#" xmlns:dc="http://purl.org/dc/elements/1.1/" xmlns:rdf="http://www.w3.org/1999/02/22-rdf-syntax-ns#">
 <defs>
  <clipPath id="clipPath869">
   <path d="m0 792h1207.9v-792h-1207.9z"/>
  </clipPath>
 </defs>
 <metadata>
  <rdf:RDF>
   <cc:Work rdf:about="">
    <dc:format>image/svg+xml</dc:format>
    <dc:type rdf:resource="http://purl.org/dc/dcmitype/StillImage"/>
    <dc:title/>
   </cc:Work>
  </rdf:RDF>
 </metadata>
 <g transform="translate(-1.9748 -2.3428)">
  <g transform="matrix(.030771 0 0 -.030771 -11.793 16.887)">
   <g clip-path="url(#clipPath869)">
    <g transform="translate(60.78 -3.7988)">
     <g transform="translate(422.13 406.2)">
      <path d="m0 0c0-33.546 11.006-60.74 24.582-60.74s24.581 27.194 24.581 60.74c0 33.545-11.005 60.74-24.581 60.74s-24.582-27.195-24.582-60.74z" fill="none" stroke="#fff" stroke-linecap="round" stroke-miterlimit="10" stroke-width="6"/>
     </g>
     <g transform="translate(443.09 425.4)">
      <path d="m0 0h-4.783c-1.325 0-2.4 1.074-2.4 2.399v1.546c0 1.325 1.075 2.399 2.4 2.399h4.783c1.325 0 2.399-1.074 2.399-2.399v-1.546c0-1.325-1.074-2.399-2.399-2.399" fill="#fff"/>
     </g>
     <g transform="translate(443.09 425.4)">
      <path d="m0 0h-4.783c-1.325 0-2.4 1.074-2.4 2.399v1.546c0 1.325 1.075 2.399 2.4 2.399h4.783c1.325 0 2.399-1.074 2.399-2.399v-1.546c0-1.325-1.074-2.399-2.399-2.399z" fill="none" stroke="#fff" stroke-linecap="round" stroke-miterlimit="10" stroke-width="3"/>
     </g>
     <g transform="translate(438.1 395.74)">
      <path d="m0 0h-4.783c-1.325 0-2.4 1.074-2.4 2.399v1.545c0 1.326 1.075 2.399 2.4 2.399h4.783c1.325 0 2.399-1.073 2.399-2.399v-1.545c0-1.325-1.074-2.399-2.399-2.399" fill="#231f20"/>
     </g>
     <g transform="translate(438.1 395.74)">
      <path d="m0 0h-4.783c-1.325 0-2.4 1.074-2.4 2.399v1.545c0 1.326 1.075 2.399 2.4 2.399h4.783c1.325 0 2.399-1.073 2.399-2.399v-1.545c0-1.325-1.074-2.399-2.399-2.399z" fill="none" stroke="#fff" stroke-linecap="round" stroke-miterlimit="10" stroke-width="3"/>
     </g>
     <g transform="translate(467.69 412.08)">
      <path d="m0 0h-4.783c-1.325 0-2.399 1.074-2.399 2.399v1.546c0 1.325 1.074 2.399 2.399 2.399h4.783c1.325 0 2.399-1.074 2.399-2.399v-1.546c0-1.325-1.074-2.399-2.399-2.399" fill="#fff"/>
     </g>
     <g transform="translate(467.69 412.08)">
      <path d="m0 0h-4.783c-1.325 0-2.399 1.074-2.399 2.399v1.546c0 1.325 1.074 2.399 2.399 2.399h4.783c1.325 0 2.399-1.074 2.399-2.399v-1.546c0-1.325-1.074-2.399-2.399-2.399z" fill="none" stroke="#fff" stroke-linecap="round" stroke-miterlimit="10" stroke-width="3"/>
     </g>
     <g transform="translate(457.67 451.74)">
      <path d="m0 0h-4.783c-1.325 0-2.399 1.074-2.399 2.399v1.545c0 1.326 1.074 2.4 2.399 2.4h4.783c1.325 0 2.399-1.074 2.399-2.4v-1.545c0-1.325-1.074-2.399-2.399-2.399" fill="#231f20"/>
     </g>
     <g transform="translate(457.67 451.74)">
      <path d="m0 0h-4.783c-1.325 0-2.399 1.074-2.399 2.399v1.545c0 1.326 1.074 2.4 2.399 2.4h4.783c1.325 0 2.399-1.074 2.399-2.4v-1.545c0-1.325-1.074-2.399-2.399-2.399z" fill="none" stroke="#fff" stroke-linecap="round" stroke-miterlimit="10" stroke-width="3"/>
     </g>
     <g transform="translate(432.9 438.91)">
      <path d="m0 0h-4.783c-1.325 0-2.4 1.074-2.4 2.399v1.545c0 1.325 1.075 2.399 2.4 2.399h4.783c1.324 0 2.398-1.074 2.398-2.399v-1.545c0-1.325-1.074-2.399-2.398-2.399" fill="#231f20"/>
     </g>
     <g transform="translate(432.9 438.91)">
      <path d="m0 0h-4.783c-1.325 0-2.4 1.074-2.4 2.399v1.545c0 1.325 1.075 2.399 2.4 2.399h4.783c1.324 0 2.398-1.074 2.398-2.399v-1.545c0-1.325-1.074-2.399-2.398-2.399z" fill="none" stroke="#fff" stroke-linecap="round" stroke-miterlimit="10" stroke-width="3"/>
     </g>
     <g transform="translate(493.13 417.55)" fill="none">
      <path d="m0 0c-7.773-2.192-11.66-3.289-14.164-4.807-2.522-1.529-7.716-5.174-11.26-11.577-3.498-6.321-2.046-9.29-5.707-18.262-2.724-6.676-3.772-8.513-5.188-9.863-2.961-2.824-4.921-2.452-8.78-5.879-1.669-1.482-4.404-3.911-5.789-7.653-1.85-5.002-1.377-12.594 2.591-15.139 6.239-4 18.286 6.292 20.999 8.61 2.893 2.471 9.241 8.026 12.552 17.225 2.501 6.949 0.753 8.992 4.152 15.743 2.718 5.398 6.697 9.776 8.352 11.576 4.546 4.946 6.434 5.369 8.466 9.288 1.948 3.759 3.422 9.567 1.154 11.462-0.981 0.819-2.393 0.682-7.378-0.724" fill="none"/>
     </g>
     <g transform="translate(493.13 417.55)" fill="#fff">
      <path d="m0 0c-7.773-2.192-11.66-3.289-14.164-4.807-2.522-1.529-7.716-5.174-11.26-11.577-3.498-6.321-2.046-9.29-5.707-18.262-2.724-6.676-3.772-8.513-5.188-9.863-2.961-2.824-4.921-2.452-8.78-5.879-1.669-1.482-4.404-3.911-5.789-7.653-1.85-5.002-1.377-12.594 2.591-15.139 6.239-4 18.286 6.292 20.999 8.61 2.893 2.471 9.241 8.026 12.552 17.225 2.501 6.949 0.753 8.992 4.152 15.743 2.718 5.398 6.697 9.776 8.352 11.576 4.546 4.946 6.434 5.369 8.466 9.288 1.948 3.759 3.422 9.567 1.154 11.462-0.981 0.819-2.393 0.682-7.378-0.724z" fill="#fff" stroke="#fff" stroke-linecap="round" stroke-linejoin="round" stroke-miterlimit="10" stroke-width="5"/>
     </g>
     <g transform="translate(404.21 417.55)" fill="none">
      <path d="m0 0c7.773-2.192 11.659-3.289 14.163-4.807 2.522-1.529 7.717-5.174 11.261-11.577 3.497-6.321 2.046-9.29 5.707-18.262 2.723-6.676 3.772-8.513 5.188-9.863 2.961-2.824 4.921-2.452 8.779-5.879 1.669-1.482 4.405-3.911 5.789-7.653 1.851-5.002 1.377-12.594-2.591-15.139-6.238-4-18.285 6.292-20.999 8.61-2.892 2.471-9.241 8.026-12.551 17.225-2.501 6.949-0.754 8.992-4.152 15.743-2.718 5.398-6.697 9.776-8.352 11.576-4.546 4.946-6.435 5.369-8.466 9.288-1.948 3.759-3.422 9.567-1.154 11.462 0.981 0.819 2.392 0.682 7.378-0.724" fill="none"/>
     </g>
     <g transform="translate(404.21 417.55)" fill="#fff">
      <path d="m0 0c7.773-2.192 11.659-3.289 14.163-4.807 2.522-1.529 7.717-5.174 11.261-11.577 3.497-6.321 2.046-9.29 5.707-18.262 2.723-6.676 3.772-8.513 5.188-9.863 2.961-2.824 4.921-2.452 8.779-5.879 1.669-1.482 4.405-3.911 5.789-7.653 1.851-5.002 1.377-12.594-2.591-15.139-6.238-4-18.285 6.292-20.999 8.61-2.892 2.471-9.241 8.026-12.551 17.225-2.501 6.949-0.754 8.992-4.152 15.743-2.718 5.398-6.697 9.776-8.352 11.576-4.546 4.946-6.435 5.369-8.466 9.288-1.948 3.759-3.422 9.567-1.154 11.462 0.981 0.819 2.392 0.682 7.378-0.724z" fill="#fff" stroke="#fff" stroke-linecap="round" stroke-linejoin="round" stroke-miterlimit="10" stroke-width="5"/>
     </g>
    </g>
   </g>
  </g>
 </g>
</svg>
